<svg version="1.2" xmlns="http://www.w3.org/2000/svg" viewBox="0 0 52 42" width="52" height="42">
	<title>logo-svg</title>
	<style>
		.s0 { fill: #ffffff } 
		.s1 { fill: #4d88ff } 
	</style>
	<g id="Layer">
		<g id="Lager_1">
			<path id="Layer" class="s0" d="m24 20q-0.4-0.3-0.9-0.6-0.5-0.3-1-0.6-0.5-0.2-1.1-0.4-0.5-0.2-1-0.4-2-0.6-4.1-1.1-1.4-0.3-2.7-0.7-0.3-0.1-0.5-0.2-0.2 0-0.5-0.1-0.2-0.1-0.4-0.3-0.2-0.1-0.4-0.2-0.2-0.1-0.3-0.2-0.1-0.1-0.2-0.2-0.1-0.1-0.2-0.2-0.1-0.1-0.2-0.3-0.1-0.1-0.1-0.3-0.1-0.1-0.1-0.3 0-0.1 0-0.3 0-0.1 0-0.3 0-0.2 0-0.4 0-0.2 0-0.4 0.1-0.2 0.1-0.4 0.1-0.2 0.2-0.4 0-0.1 0.1-0.2 0.1-0.2 0.2-0.3 0-0.1 0.2-0.2 0.1-0.2 0.2-0.2 0.2-0.2 0.3-0.3 0.2-0.1 0.4-0.2 0.2-0.1 0.4-0.2 0.2 0 0.4-0.1 0.3-0.1 0.7-0.2 0.3 0 0.6-0.1 0.4 0 0.7 0 0.4 0 0.7 0 0.5 0 1.1 0 0.5 0 1.1 0.1 0.5 0.1 1 0.2 0.6 0.1 1.1 0.2 0.5 0.1 1 0.3 0.5 0.1 1 0.3 0.5 0.2 1 0.3 0.5 0.2 1 0.4l3.3 1.4v-9l-1.4-0.6q-0.6-0.2-1.2-0.5-0.6-0.2-1.2-0.4-0.6-0.1-1.2-0.3-0.6-0.2-1.2-0.3-1.3-0.3-2.7-0.4-1.3-0.2-2.7-0.2-1.4 0-2.7 0.2-1.4 0.2-2.7 0.5-0.6 0.2-1.2 0.4-0.6 0.2-1.2 0.5-0.5 0.3-1.1 0.6-0.5 0.3-1 0.7-0.5 0.4-1 0.8-0.5 0.5-0.9 1-0.4 0.5-0.8 1-0.3 0.6-0.6 1.1-0.3 0.7-0.6 1.4-0.2 0.7-0.4 1.4-0.1 0.7-0.2 1.4 0 0.7 0 1.4-0.1 0.7 0 1.4 0.1 0.7 0.2 1.3 0.2 0.7 0.4 1.3 0.3 0.7 0.6 1.3 0.3 0.5 0.6 1 0.4 0.5 0.8 0.9 0.3 0.4 0.8 0.8 0.4 0.4 0.9 0.7 0.5 0.3 1 0.6 0.5 0.3 1 0.5 0.5 0.3 1 0.4 0.5 0.2 1.1 0.4c1.3 0.4 2.6 0.8 4 1.1 1 0.2 1.9 0.4 2.7 0.7q0.3 0.1 0.5 0.2 0.2 0 0.5 0.1 0.2 0.1 0.4 0.3 0.2 0.1 0.5 0.2 0.1 0.1 0.2 0.2 0.1 0.1 0.3 0.2 0.1 0.1 0.2 0.2 0.1 0.2 0.2 0.3 0.1 0.1 0.1 0.3 0.1 0.2 0.1 0.3 0.1 0.2 0.1 0.4 0 0.1 0 0.3 0 0.2 0 0.5 0 0.2-0.1 0.5 0 0.2-0.1 0.5-0.1 0.2-0.2 0.4-0.1 0.2-0.2 0.3-0.1 0.2-0.3 0.3-0.1 0.2-0.3 0.3-0.1 0.1-0.3 0.2-0.2 0.1-0.5 0.3-0.2 0.1-0.5 0.2-0.3 0.1-0.5 0.1-0.3 0.1-0.6 0.2-0.6 0.1-1.2 0.1-0.7 0.1-1.3 0.1-0.6 0-1.2 0-0.7 0-1.3-0.1-1.1-0.2-2.3-0.4-0.2-0.1-0.5-0.1-0.3-0.1-0.5-0.2-0.3 0-0.6-0.1-0.3-0.1-0.5-0.2-0.2-0.1-0.5-0.1-0.2-0.1-0.4-0.2-0.2-0.1-0.5-0.2-0.2-0.1-0.4-0.2l-3.4-1.7v9l1.1 0.7q0.3 0.1 0.5 0.2 0.3 0.2 0.5 0.3 0.3 0.1 0.5 0.2 0.3 0.1 0.6 0.2 0.3 0.1 0.6 0.2 0.3 0.1 0.6 0.2 0.4 0.1 0.7 0.2 0.3 0 0.6 0.1 0.4 0.1 0.8 0.2 0.3 0 0.7 0.1 0.3 0.1 0.7 0.1 0.4 0.1 0.7 0.1 0.4 0 0.8 0.1 0.4 0 0.7 0 0.4 0.1 0.8 0.1 0.4 0 0.7 0 0.8 0 1.5-0.1 0.8 0 1.5-0.1 0.7-0.1 1.5-0.2 0.7-0.1 1.4-0.3 0.7-0.1 1.3-0.4 0.7-0.2 1.3-0.5 0.7-0.2 1.3-0.6 0.6-0.3 1.1-0.7 0.6-0.4 1.1-0.8 0.5-0.5 0.9-1 0.5-0.5 0.9-1 0.3-0.6 0.7-1.2 0.3-0.6 0.5-1.3 0.3-0.7 0.4-1.4 0.2-0.8 0.3-1.5 0-0.7 0-1.5 0.1-0.7 0-1.4-0.1-0.7-0.2-1.4-0.2-0.7-0.4-1.3-0.3-0.7-0.6-1.3-0.3-0.5-0.6-1-0.4-0.5-0.8-0.9-0.4-0.5-0.8-0.9-0.5-0.4-1-0.7z"/>
			<path id="Layer" class="s1" d="m32.4 1.7h5.3v5.2h-5.3z"/>
			<path id="Layer" class="s1" d="m51.1 15.6q0-0.3-0.1-0.6-0.2-0.3-0.3-0.5-0.1-0.3-0.3-0.6-0.2-0.3-0.3-0.5-0.2-0.3-0.5-0.5-0.2-0.2-0.4-0.4-0.3-0.3-0.5-0.4-0.3-0.2-0.6-0.3-0.6-0.3-1.3-0.5-0.7-0.2-1.4-0.2-0.7 0-1.4 0.2-0.7 0.2-1.3 0.5-0.2 0.1-0.5 0.3-0.2 0.1-0.4 0.3-0.3 0.2-0.5 0.5-0.2 0.2-0.3 0.4-0.2 0.3-0.3 0.5-0.1 0.2-0.3 0.5-0.1 0.2-0.2 0.5-0.1 0.3-0.2 0.5-0.2 1-0.5 1.9-0.1 0.7-0.3 1.3 0 0.1-0.1 0.2 0 0.1 0 0.2-0.1 0-0.1 0.1-0.1 0.1-0.1 0.2 0 0.1-0.1 0.1 0 0 0 0.1-0.1 0-0.1 0.1-0.1 0-0.1 0 0 0-0.1 0 0 0.1-0.1 0.1 0 0-0.1 0 0 0-0.1 0 0 0-0.1 0-0.1 0-0.2-0.1-0.1 0-0.2 0-0.1 0-0.1-0.1-0.1 0-0.1 0-0.1-0.1-0.1-0.1-0.1-0.1-0.1-0.1-0.1-0.1-0.1-0.1 0-0.1-0.1-0.2 0-0.1-0.1-0.2 0-0.1 0-0.2-0.1-0.1-0.1-0.3 0-0.1 0-0.3-0.1-0.1-0.1-0.3 0-0.2 0-0.3 0-0.2 0-0.3 0-0.2 0-0.3 0-0.1 0-0.2 0-0.1 0-0.2 0-0.1 0.1-0.2 0-0.3 0-0.5 0.1-0.3 0.1-0.6 0.1-0.2 0.1-0.4 0.1-0.3 0.2-0.5 0-0.1 0.1-0.2 0-0.1 0-0.2 0.1-0.1 0.1-0.2 0-0.1 0.1-0.2l1.1-2.2h-5.1l-0.4 0.7q-0.1 0.1-0.1 0.3-0.1 0.1-0.2 0.2 0 0.1-0.1 0.3 0 0.1-0.1 0.2 0 0.2-0.1 0.3 0 0.2-0.1 0.3 0 0.2 0 0.3-0.1 0.2-0.1 0.4-0.2 0.6-0.3 1.3 0 0.2 0 0.4 0 0.2 0 0.4 0 0.1 0 0.3 0 0.2 0 0.4 0 0.3 0 0.7 0 0.3 0 0.7 0.1 0.4 0.1 0.7 0.1 0.4 0.2 0.7 0.1 0.3 0.2 0.7 0.1 0.3 0.2 0.6 0.1 0.3 0.3 0.6 0.2 0.3 0.4 0.6 0.2 0.3 0.4 0.5 0.2 0.3 0.5 0.5 0.2 0.2 0.5 0.4 0.3 0.2 0.6 0.4 0.3 0.1 0.6 0.3 0.4 0.1 0.7 0.2 0.4 0 0.8 0.1 0.3 0 0.7 0 0.3 0 0.7 0 0.3-0.1 0.7-0.1 0.3-0.1 0.6-0.2 0.4-0.2 0.7-0.3 0.3-0.2 0.5-0.3 0.2-0.2 0.5-0.4 0.2-0.2 0.4-0.4 0.2-0.3 0.3-0.5 0.2-0.2 0.3-0.5 0.2-0.2 0.3-0.5 0.1-0.2 0.2-0.5 0.1-0.2 0.2-0.5 0.3-0.9 0.5-1.9 0.2-0.7 0.3-1.2 0.1-0.1 0.1-0.2 0-0.1 0.1-0.2 0-0.1 0.1-0.2 0-0.1 0.1-0.2 0 0 0-0.1 0 0 0.1 0 0-0.1 0.1-0.1 0 0 0-0.1 0.1 0 0.1 0 0.1 0 0.1 0 0 0 0.1 0 0 0 0.1 0 0.1 0 0.1 0 0.1 0 0.2 0 0 0 0.1 0 0.1 0.1 0.1 0.1 0.1 0 0.1 0 0.1 0 0.1 0.1 0 0 0.1 0 0 0.1 0 0.1 0.1 0.1 0.1 0.1 0.1 0.1 0.1 0.2 0 0 0.1 0.1 0 0.1 0 0.2 0 0.1 0.1 0.2 0 0.2 0 0.3 0 0.2 0 0.3 0 0.1 0 0.3 0 0.2 0 0.5 0 0.2 0 0.4-0.1 0.3-0.1 0.5 0 0.2-0.1 0.5-0.1 0.2-0.1 0.4-0.1 0.3-0.2 0.5 0 0.2-0.1 0.4-0.1 0.3-0.2 0.5l-0.9 2.1h5.1l0.4-1q0.1-0.2 0.2-0.5 0.1-0.3 0.2-0.6 0.1-0.3 0.2-0.5 0-0.3 0.1-0.6 0.1-0.4 0.1-0.7 0.1-0.3 0.1-0.7 0-0.3 0.1-0.6 0-0.4 0-0.7 0-0.3 0-0.6-0.1-0.3-0.1-0.7 0-0.3-0.1-0.6-0.1-0.3-0.2-0.6z"/>
			<path id="Layer" class="s1" d="m32.4 41.7h4.7v-8.1h2.5v6.8h4.7v-6.8h2.1v7.7h4.8v-12.7h-18.8v13.1z"/>
		</g>
	</g>
</svg>